{"header": {"formatType": 0, "trackCount": 1, "ticksPerBeat": 480}, "tracks": [[{"deltaTime": 0, "type": "meta", "subtype": "midiChannelPrefix", "channel": 0}, {"deltaTime": 0, "type": "meta", "subtype": "trackName", "text": "Bluebird"}, {"deltaTime": 0, "type": "meta", "subtype": "instrumentName", "text": "SONG1"}, {"deltaTime": 0, "type": "meta", "subtype": "timeSignature", "numerator": 1, "denominator": 4, "metronome": 24, "thirtyseconds": 8}, {"deltaTime": 0, "type": "meta", "subtype": "keySignature", "key": 0, "scale": 0}, {"deltaTime": 0, "type": "meta", "subtype": "smpteOffset", "frameRate": 25, "hour": 1, "min": 0, "sec": 0, "frame": 0, "subframe": 0}, {"deltaTime": 0, "type": "meta", "subtype": "setTempo", "microsecondsPerBeat": 652174}, {"deltaTime": 8058, "channel": 0, "type": "channel", "noteNumber": 35, "velocity": 100, "subtype": "noteOn"}, {"deltaTime": 120, "channel": 0, "type": "channel", "subtype": "noteOff", "noteNumber": 35, "velocity": 64}, {"deltaTime": 360, "channel": 0, "type": "channel", "noteNumber": 35, "velocity": 100, "subtype": "noteOn"}, {"deltaTime": 120, "channel": 0, "type": "channel", "subtype": "noteOff", "noteNumber": 35, "velocity": 64}, {"deltaTime": 360, "channel": 0, "type": "channel", "noteNumber": 35, "velocity": 100, "subtype": "noteOn"}, {"deltaTime": 120, "channel": 0, "type": "channel", "subtype": "noteOff", "noteNumber": 35, "velocity": 64}, {"deltaTime": 360, "channel": 0, "type": "channel", "noteNumber": 35, "velocity": 100, "subtype": "noteOn"}, {"deltaTime": 120, "channel": 0, "type": "channel", "subtype": "noteOff", "noteNumber": 35, "velocity": 64}, {"deltaTime": 360, "channel": 0, "type": "channel", "noteNumber": 35, "velocity": 100, "subtype": "noteOn"}, {"deltaTime": 120, "channel": 0, "type": "channel", "subtype": "noteOff", "noteNumber": 35, "velocity": 64}, {"deltaTime": 360, "channel": 0, "type": "channel", "noteNumber": 35, "velocity": 100, "subtype": "noteOn"}, {"deltaTime": 120, "channel": 0, "type": "channel", "subtype": "noteOff", "noteNumber": 35, "velocity": 64}, {"deltaTime": 360, "channel": 0, "type": "channel", "noteNumber": 35, "velocity": 100, "subtype": "noteOn"}, {"deltaTime": 120, "channel": 0, "type": "channel", "subtype": "noteOff", "noteNumber": 35, "velocity": 64}, {"deltaTime": 360, "channel": 0, "type": "channel", "noteNumber": 35, "velocity": 100, "subtype": "noteOn"}, {"deltaTime": 120, "channel": 0, "type": "channel", "subtype": "noteOff", "noteNumber": 35, "velocity": 64}, {"deltaTime": 360, "channel": 0, "type": "channel", "noteNumber": 35, "velocity": 100, "subtype": "noteOn"}, {"deltaTime": 120, "channel": 0, "type": "channel", "subtype": "noteOff", "noteNumber": 35, "velocity": 64}, {"deltaTime": 360, "channel": 0, "type": "channel", "noteNumber": 35, "velocity": 100, "subtype": "noteOn"}, {"deltaTime": 120, "channel": 0, "type": "channel", "subtype": "noteOff", "noteNumber": 35, "velocity": 64}, {"deltaTime": 360, "channel": 0, "type": "channel", "noteNumber": 35, "velocity": 100, "subtype": "noteOn"}, {"deltaTime": 120, "channel": 0, "type": "channel", "subtype": "noteOff", "noteNumber": 35, "velocity": 64}, {"deltaTime": 360, "channel": 0, "type": "channel", "noteNumber": 35, "velocity": 100, "subtype": "noteOn"}, {"deltaTime": 120, "channel": 0, "type": "channel", "subtype": "noteOff", "noteNumber": 35, "velocity": 64}, {"deltaTime": 360, "channel": 0, "type": "channel", "noteNumber": 35, "velocity": 100, "subtype": "noteOn"}, {"deltaTime": 120, "channel": 0, "type": "channel", "subtype": "noteOff", "noteNumber": 35, "velocity": 64}, {"deltaTime": 360, "channel": 0, "type": "channel", "noteNumber": 35, "velocity": 100, "subtype": "noteOn"}, {"deltaTime": 120, "channel": 0, "type": "channel", "subtype": "noteOff", "noteNumber": 35, "velocity": 64}, {"deltaTime": 360, "channel": 0, "type": "channel", "noteNumber": 35, "velocity": 100, "subtype": "noteOn"}, {"deltaTime": 120, "channel": 0, "type": "channel", "subtype": "noteOff", "noteNumber": 35, "velocity": 64}, {"deltaTime": 360, "channel": 0, "type": "channel", "noteNumber": 35, "velocity": 100, "subtype": "noteOn"}, {"deltaTime": 120, "channel": 0, "type": "channel", "subtype": "noteOff", "noteNumber": 35, "velocity": 64}, {"deltaTime": 360, "channel": 0, "type": "channel", "noteNumber": 35, "velocity": 100, "subtype": "noteOn"}, {"deltaTime": 120, "channel": 0, "type": "channel", "subtype": "noteOff", "noteNumber": 35, "velocity": 64}, {"deltaTime": 360, "channel": 0, "type": "channel", "noteNumber": 35, "velocity": 100, "subtype": "noteOn"}, {"deltaTime": 120, "channel": 0, "type": "channel", "subtype": "noteOff", "noteNumber": 35, "velocity": 64}, {"deltaTime": 360, "channel": 0, "type": "channel", "noteNumber": 35, "velocity": 100, "subtype": "noteOn"}, {"deltaTime": 120, "channel": 0, "type": "channel", "subtype": "noteOff", "noteNumber": 35, "velocity": 64}, {"deltaTime": 360, "channel": 0, "type": "channel", "noteNumber": 35, "velocity": 100, "subtype": "noteOn"}, {"deltaTime": 120, "channel": 0, "type": "channel", "subtype": "noteOff", "noteNumber": 35, "velocity": 64}, {"deltaTime": 360, "channel": 0, "type": "channel", "noteNumber": 35, "velocity": 100, "subtype": "noteOn"}, {"deltaTime": 120, "channel": 0, "type": "channel", "subtype": "noteOff", "noteNumber": 35, "velocity": 64}, {"deltaTime": 360, "channel": 0, "type": "channel", "noteNumber": 35, "velocity": 100, "subtype": "noteOn"}, {"deltaTime": 120, "channel": 0, "type": "channel", "subtype": "noteOff", "noteNumber": 35, "velocity": 64}, {"deltaTime": 360, "channel": 0, "type": "channel", "noteNumber": 35, "velocity": 100, "subtype": "noteOn"}, {"deltaTime": 120, "channel": 0, "type": "channel", "subtype": "noteOff", "noteNumber": 35, "velocity": 64}, {"deltaTime": 360, "channel": 0, "type": "channel", "noteNumber": 35, "velocity": 100, "subtype": "noteOn"}, {"deltaTime": 120, "channel": 0, "type": "channel", "subtype": "noteOff", "noteNumber": 35, "velocity": 64}, {"deltaTime": 359, "channel": 0, "type": "channel", "noteNumber": 44, "velocity": 100, "subtype": "noteOn"}, {"deltaTime": 1, "channel": 0, "type": "channel", "noteNumber": 35, "velocity": 100, "subtype": "noteOn"}, {"deltaTime": 119, "channel": 0, "type": "channel", "subtype": "noteOff", "noteNumber": 44, "velocity": 64}, {"deltaTime": 1, "channel": 0, "type": "channel", "subtype": "noteOff", "noteNumber": 35, "velocity": 64}, {"deltaTime": 359, "channel": 0, "type": "channel", "noteNumber": 44, "velocity": 100, "subtype": "noteOn"}, {"deltaTime": 1, "channel": 0, "type": "channel", "noteNumber": 35, "velocity": 100, "subtype": "noteOn"}, {"deltaTime": 119, "channel": 0, "type": "channel", "subtype": "noteOff", "noteNumber": 44, "velocity": 64}, {"deltaTime": 1, "channel": 0, "type": "channel", "subtype": "noteOff", "noteNumber": 35, "velocity": 64}, {"deltaTime": 359, "channel": 0, "type": "channel", "noteNumber": 44, "velocity": 100, "subtype": "noteOn"}, {"deltaTime": 1, "channel": 0, "type": "channel", "noteNumber": 35, "velocity": 100, "subtype": "noteOn"}, {"deltaTime": 119, "channel": 0, "type": "channel", "subtype": "noteOff", "noteNumber": 44, "velocity": 64}, {"deltaTime": 1, "channel": 0, "type": "channel", "subtype": "noteOff", "noteNumber": 35, "velocity": 64}, {"deltaTime": 359, "channel": 0, "type": "channel", "noteNumber": 44, "velocity": 100, "subtype": "noteOn"}, {"deltaTime": 1, "channel": 0, "type": "channel", "noteNumber": 35, "velocity": 100, "subtype": "noteOn"}, {"deltaTime": 119, "channel": 0, "type": "channel", "subtype": "noteOff", "noteNumber": 44, "velocity": 64}, {"deltaTime": 1, "channel": 0, "type": "channel", "subtype": "noteOff", "noteNumber": 35, "velocity": 64}, {"deltaTime": 359, "channel": 0, "type": "channel", "noteNumber": 44, "velocity": 100, "subtype": "noteOn"}, {"deltaTime": 1, "channel": 0, "type": "channel", "noteNumber": 35, "velocity": 100, "subtype": "noteOn"}, {"deltaTime": 119, "channel": 0, "type": "channel", "subtype": "noteOff", "noteNumber": 44, "velocity": 64}, {"deltaTime": 1, "channel": 0, "type": "channel", "subtype": "noteOff", "noteNumber": 35, "velocity": 64}, {"deltaTime": 359, "channel": 0, "type": "channel", "noteNumber": 44, "velocity": 100, "subtype": "noteOn"}, {"deltaTime": 1, "channel": 0, "type": "channel", "noteNumber": 35, "velocity": 100, "subtype": "noteOn"}, {"deltaTime": 119, "channel": 0, "type": "channel", "subtype": "noteOff", "noteNumber": 44, "velocity": 64}, {"deltaTime": 1, "channel": 0, "type": "channel", "subtype": "noteOff", "noteNumber": 35, "velocity": 64}, {"deltaTime": 359, "channel": 0, "type": "channel", "noteNumber": 44, "velocity": 100, "subtype": "noteOn"}, {"deltaTime": 1, "channel": 0, "type": "channel", "noteNumber": 35, "velocity": 100, "subtype": "noteOn"}, {"deltaTime": 119, "channel": 0, "type": "channel", "subtype": "noteOff", "noteNumber": 44, "velocity": 64}, {"deltaTime": 1, "channel": 0, "type": "channel", "subtype": "noteOff", "noteNumber": 35, "velocity": 64}, {"deltaTime": 359, "channel": 0, "type": "channel", "noteNumber": 44, "velocity": 100, "subtype": "noteOn"}, {"deltaTime": 1, "channel": 0, "type": "channel", "noteNumber": 35, "velocity": 100, "subtype": "noteOn"}, {"deltaTime": 119, "channel": 0, "type": "channel", "subtype": "noteOff", "noteNumber": 44, "velocity": 64}, {"deltaTime": 1, "channel": 0, "type": "channel", "subtype": "noteOff", "noteNumber": 35, "velocity": 64}, {"deltaTime": 359, "channel": 0, "type": "channel", "noteNumber": 44, "velocity": 100, "subtype": "noteOn"}, {"deltaTime": 1, "channel": 0, "type": "channel", "noteNumber": 35, "velocity": 100, "subtype": "noteOn"}, {"deltaTime": 119, "channel": 0, "type": "channel", "subtype": "noteOff", "noteNumber": 44, "velocity": 64}, {"deltaTime": 1, "channel": 0, "type": "channel", "subtype": "noteOff", "noteNumber": 35, "velocity": 64}, {"deltaTime": 359, "channel": 0, "type": "channel", "noteNumber": 44, "velocity": 100, "subtype": "noteOn"}, {"deltaTime": 1, "channel": 0, "type": "channel", "noteNumber": 35, "velocity": 100, "subtype": "noteOn"}, {"deltaTime": 119, "channel": 0, "type": "channel", "subtype": "noteOff", "noteNumber": 44, "velocity": 64}, {"deltaTime": 1, "channel": 0, "type": "channel", "subtype": "noteOff", "noteNumber": 35, "velocity": 64}, {"deltaTime": 359, "channel": 0, "type": "channel", "noteNumber": 44, "velocity": 100, "subtype": "noteOn"}, {"deltaTime": 1, "channel": 0, "type": "channel", "noteNumber": 35, "velocity": 100, "subtype": "noteOn"}, {"deltaTime": 119, "channel": 0, "type": "channel", "subtype": "noteOff", "noteNumber": 44, "velocity": 64}, {"deltaTime": 1, "channel": 0, "type": "channel", "subtype": "noteOff", "noteNumber": 35, "velocity": 64}, {"deltaTime": 359, "channel": 0, "type": "channel", "noteNumber": 44, "velocity": 100, "subtype": "noteOn"}, {"deltaTime": 1, "channel": 0, "type": "channel", "noteNumber": 35, "velocity": 100, "subtype": "noteOn"}, {"deltaTime": 119, "channel": 0, "type": "channel", "subtype": "noteOff", "noteNumber": 44, "velocity": 64}, {"deltaTime": 1, "channel": 0, "type": "channel", "subtype": "noteOff", "noteNumber": 35, "velocity": 64}, {"deltaTime": 359, "channel": 0, "type": "channel", "noteNumber": 44, "velocity": 100, "subtype": "noteOn"}, {"deltaTime": 1, "channel": 0, "type": "channel", "noteNumber": 35, "velocity": 100, "subtype": "noteOn"}, {"deltaTime": 119, "channel": 0, "type": "channel", "subtype": "noteOff", "noteNumber": 44, "velocity": 64}, {"deltaTime": 1, "channel": 0, "type": "channel", "subtype": "noteOff", "noteNumber": 35, "velocity": 64}, {"deltaTime": 359, "channel": 0, "type": "channel", "noteNumber": 44, "velocity": 100, "subtype": "noteOn"}, {"deltaTime": 1, "channel": 0, "type": "channel", "noteNumber": 35, "velocity": 100, "subtype": "noteOn"}, {"deltaTime": 119, "channel": 0, "type": "channel", "subtype": "noteOff", "noteNumber": 44, "velocity": 64}, {"deltaTime": 1, "channel": 0, "type": "channel", "subtype": "noteOff", "noteNumber": 35, "velocity": 64}, {"deltaTime": 359, "channel": 0, "type": "channel", "noteNumber": 44, "velocity": 100, "subtype": "noteOn"}, {"deltaTime": 1, "channel": 0, "type": "channel", "noteNumber": 35, "velocity": 100, "subtype": "noteOn"}, {"deltaTime": 119, "channel": 0, "type": "channel", "subtype": "noteOff", "noteNumber": 44, "velocity": 64}, {"deltaTime": 1, "channel": 0, "type": "channel", "subtype": "noteOff", "noteNumber": 35, "velocity": 64}, {"deltaTime": 359, "channel": 0, "type": "channel", "noteNumber": 44, "velocity": 100, "subtype": "noteOn"}, {"deltaTime": 1, "channel": 0, "type": "channel", "noteNumber": 35, "velocity": 100, "subtype": "noteOn"}, {"deltaTime": 119, "channel": 0, "type": "channel", "subtype": "noteOff", "noteNumber": 44, "velocity": 64}, {"deltaTime": 1, "channel": 0, "type": "channel", "subtype": "noteOff", "noteNumber": 35, "velocity": 64}, {"deltaTime": 359, "channel": 0, "type": "channel", "noteNumber": 44, "velocity": 100, "subtype": "noteOn"}, {"deltaTime": 1, "channel": 0, "type": "channel", "noteNumber": 35, "velocity": 100, "subtype": "noteOn"}, {"deltaTime": 119, "channel": 0, "type": "channel", "subtype": "noteOff", "noteNumber": 44, "velocity": 64}, {"deltaTime": 1, "channel": 0, "type": "channel", "subtype": "noteOff", "noteNumber": 35, "velocity": 64}, {"deltaTime": 359, "channel": 0, "type": "channel", "noteNumber": 44, "velocity": 100, "subtype": "noteOn"}, {"deltaTime": 1, "channel": 0, "type": "channel", "noteNumber": 35, "velocity": 100, "subtype": "noteOn"}, {"deltaTime": 119, "channel": 0, "type": "channel", "subtype": "noteOff", "noteNumber": 44, "velocity": 64}, {"deltaTime": 1, "channel": 0, "type": "channel", "subtype": "noteOff", "noteNumber": 35, "velocity": 64}, {"deltaTime": 359, "channel": 0, "type": "channel", "noteNumber": 44, "velocity": 100, "subtype": "noteOn"}, {"deltaTime": 1, "channel": 0, "type": "channel", "noteNumber": 35, "velocity": 100, "subtype": "noteOn"}, {"deltaTime": 119, "channel": 0, "type": "channel", "subtype": "noteOff", "noteNumber": 44, "velocity": 64}, {"deltaTime": 1, "channel": 0, "type": "channel", "subtype": "noteOff", "noteNumber": 35, "velocity": 64}, {"deltaTime": 359, "channel": 0, "type": "channel", "noteNumber": 44, "velocity": 100, "subtype": "noteOn"}, {"deltaTime": 1, "channel": 0, "type": "channel", "noteNumber": 35, "velocity": 100, "subtype": "noteOn"}, {"deltaTime": 119, "channel": 0, "type": "channel", "subtype": "noteOff", "noteNumber": 44, "velocity": 64}, {"deltaTime": 1, "channel": 0, "type": "channel", "subtype": "noteOff", "noteNumber": 35, "velocity": 64}, {"deltaTime": 359, "channel": 0, "type": "channel", "noteNumber": 44, "velocity": 100, "subtype": "noteOn"}, {"deltaTime": 1, "channel": 0, "type": "channel", "noteNumber": 35, "velocity": 100, "subtype": "noteOn"}, {"deltaTime": 119, "channel": 0, "type": "channel", "subtype": "noteOff", "noteNumber": 44, "velocity": 64}, {"deltaTime": 1, "channel": 0, "type": "channel", "subtype": "noteOff", "noteNumber": 35, "velocity": 64}, {"deltaTime": 359, "channel": 0, "type": "channel", "noteNumber": 44, "velocity": 100, "subtype": "noteOn"}, {"deltaTime": 1, "channel": 0, "type": "channel", "noteNumber": 35, "velocity": 100, "subtype": "noteOn"}, {"deltaTime": 119, "channel": 0, "type": "channel", "subtype": "noteOff", "noteNumber": 44, "velocity": 64}, {"deltaTime": 1, "channel": 0, "type": "channel", "subtype": "noteOff", "noteNumber": 35, "velocity": 64}, {"deltaTime": 119, "channel": 0, "type": "channel", "noteNumber": 44, "velocity": 100, "subtype": "noteOn"}, {"deltaTime": 120, "channel": 0, "type": "channel", "subtype": "noteOff", "noteNumber": 44, "velocity": 64}, {"deltaTime": 120, "channel": 0, "type": "channel", "noteNumber": 44, "velocity": 100, "subtype": "noteOn"}, {"deltaTime": 1, "channel": 0, "type": "channel", "noteNumber": 35, "velocity": 100, "subtype": "noteOn"}, {"deltaTime": 119, "channel": 0, "type": "channel", "subtype": "noteOff", "noteNumber": 44, "velocity": 64}, {"deltaTime": 1, "channel": 0, "type": "channel", "subtype": "noteOff", "noteNumber": 35, "velocity": 64}, {"deltaTime": 119, "channel": 0, "type": "channel", "noteNumber": 44, "velocity": 100, "subtype": "noteOn"}, {"deltaTime": 120, "channel": 0, "type": "channel", "subtype": "noteOff", "noteNumber": 44, "velocity": 64}, {"deltaTime": 120, "channel": 0, "type": "channel", "noteNumber": 44, "velocity": 100, "subtype": "noteOn"}, {"deltaTime": 1, "channel": 0, "type": "channel", "noteNumber": 35, "velocity": 100, "subtype": "noteOn"}, {"deltaTime": 119, "channel": 0, "type": "channel", "subtype": "noteOff", "noteNumber": 44, "velocity": 64}, {"deltaTime": 1, "channel": 0, "type": "channel", "subtype": "noteOff", "noteNumber": 35, "velocity": 64}, {"deltaTime": 119, "channel": 0, "type": "channel", "noteNumber": 44, "velocity": 100, "subtype": "noteOn"}, {"deltaTime": 120, "channel": 0, "type": "channel", "subtype": "noteOff", "noteNumber": 44, "velocity": 64}, {"deltaTime": 120, "channel": 0, "type": "channel", "noteNumber": 44, "velocity": 100, "subtype": "noteOn"}, {"deltaTime": 1, "channel": 0, "type": "channel", "noteNumber": 35, "velocity": 100, "subtype": "noteOn"}, {"deltaTime": 119, "channel": 0, "type": "channel", "subtype": "noteOff", "noteNumber": 44, "velocity": 64}, {"deltaTime": 1, "channel": 0, "type": "channel", "subtype": "noteOff", "noteNumber": 35, "velocity": 64}, {"deltaTime": 119, "channel": 0, "type": "channel", "noteNumber": 44, "velocity": 100, "subtype": "noteOn"}, {"deltaTime": 120, "channel": 0, "type": "channel", "subtype": "noteOff", "noteNumber": 44, "velocity": 64}, {"deltaTime": 120, "channel": 0, "type": "channel", "noteNumber": 44, "velocity": 100, "subtype": "noteOn"}, {"deltaTime": 1, "channel": 0, "type": "channel", "noteNumber": 35, "velocity": 100, "subtype": "noteOn"}, {"deltaTime": 119, "channel": 0, "type": "channel", "subtype": "noteOff", "noteNumber": 44, "velocity": 64}, {"deltaTime": 1, "channel": 0, "type": "channel", "subtype": "noteOff", "noteNumber": 35, "velocity": 64}, {"deltaTime": 119, "channel": 0, "type": "channel", "noteNumber": 44, "velocity": 100, "subtype": "noteOn"}, {"deltaTime": 120, "channel": 0, "type": "channel", "subtype": "noteOff", "noteNumber": 44, "velocity": 64}, {"deltaTime": 120, "channel": 0, "type": "channel", "noteNumber": 44, "velocity": 100, "subtype": "noteOn"}, {"deltaTime": 1, "channel": 0, "type": "channel", "noteNumber": 35, "velocity": 100, "subtype": "noteOn"}, {"deltaTime": 119, "channel": 0, "type": "channel", "subtype": "noteOff", "noteNumber": 44, "velocity": 64}, {"deltaTime": 1, "channel": 0, "type": "channel", "subtype": "noteOff", "noteNumber": 35, "velocity": 64}, {"deltaTime": 119, "channel": 0, "type": "channel", "noteNumber": 44, "velocity": 100, "subtype": "noteOn"}, {"deltaTime": 120, "channel": 0, "type": "channel", "subtype": "noteOff", "noteNumber": 44, "velocity": 64}, {"deltaTime": 120, "channel": 0, "type": "channel", "noteNumber": 44, "velocity": 100, "subtype": "noteOn"}, {"deltaTime": 1, "channel": 0, "type": "channel", "noteNumber": 35, "velocity": 100, "subtype": "noteOn"}, {"deltaTime": 119, "channel": 0, "type": "channel", "subtype": "noteOff", "noteNumber": 44, "velocity": 64}, {"deltaTime": 1, "channel": 0, "type": "channel", "subtype": "noteOff", "noteNumber": 35, "velocity": 64}, {"deltaTime": 119, "channel": 0, "type": "channel", "noteNumber": 44, "velocity": 100, "subtype": "noteOn"}, {"deltaTime": 120, "channel": 0, "type": "channel", "subtype": "noteOff", "noteNumber": 44, "velocity": 64}, {"deltaTime": 120, "channel": 0, "type": "channel", "noteNumber": 44, "velocity": 100, "subtype": "noteOn"}, {"deltaTime": 1, "channel": 0, "type": "channel", "noteNumber": 35, "velocity": 100, "subtype": "noteOn"}, {"deltaTime": 119, "channel": 0, "type": "channel", "subtype": "noteOff", "noteNumber": 44, "velocity": 64}, {"deltaTime": 1, "channel": 0, "type": "channel", "subtype": "noteOff", "noteNumber": 35, "velocity": 64}, {"deltaTime": 119, "channel": 0, "type": "channel", "noteNumber": 44, "velocity": 100, "subtype": "noteOn"}, {"deltaTime": 120, "channel": 0, "type": "channel", "subtype": "noteOff", "noteNumber": 44, "velocity": 64}, {"deltaTime": 120, "channel": 0, "type": "channel", "noteNumber": 44, "velocity": 100, "subtype": "noteOn"}, {"deltaTime": 1, "channel": 0, "type": "channel", "noteNumber": 35, "velocity": 100, "subtype": "noteOn"}, {"deltaTime": 119, "channel": 0, "type": "channel", "subtype": "noteOff", "noteNumber": 44, "velocity": 64}, {"deltaTime": 1, "channel": 0, "type": "channel", "subtype": "noteOff", "noteNumber": 35, "velocity": 64}, {"deltaTime": 119, "channel": 0, "type": "channel", "noteNumber": 44, "velocity": 100, "subtype": "noteOn"}, {"deltaTime": 120, "channel": 0, "type": "channel", "subtype": "noteOff", "noteNumber": 44, "velocity": 64}, {"deltaTime": 120, "channel": 0, "type": "channel", "noteNumber": 44, "velocity": 100, "subtype": "noteOn"}, {"deltaTime": 1, "channel": 0, "type": "channel", "noteNumber": 35, "velocity": 100, "subtype": "noteOn"}, {"deltaTime": 119, "channel": 0, "type": "channel", "subtype": "noteOff", "noteNumber": 44, "velocity": 64}, {"deltaTime": 1, "channel": 0, "type": "channel", "subtype": "noteOff", "noteNumber": 35, "velocity": 64}, {"deltaTime": 119, "channel": 0, "type": "channel", "noteNumber": 44, "velocity": 100, "subtype": "noteOn"}, {"deltaTime": 120, "channel": 0, "type": "channel", "subtype": "noteOff", "noteNumber": 44, "velocity": 64}, {"deltaTime": 120, "channel": 0, "type": "channel", "noteNumber": 44, "velocity": 100, "subtype": "noteOn"}, {"deltaTime": 1, "channel": 0, "type": "channel", "noteNumber": 35, "velocity": 100, "subtype": "noteOn"}, {"deltaTime": 119, "channel": 0, "type": "channel", "subtype": "noteOff", "noteNumber": 44, "velocity": 64}, {"deltaTime": 1, "channel": 0, "type": "channel", "subtype": "noteOff", "noteNumber": 35, "velocity": 64}, {"deltaTime": 119, "channel": 0, "type": "channel", "noteNumber": 44, "velocity": 100, "subtype": "noteOn"}, {"deltaTime": 120, "channel": 0, "type": "channel", "subtype": "noteOff", "noteNumber": 44, "velocity": 64}, {"deltaTime": 120, "channel": 0, "type": "channel", "noteNumber": 44, "velocity": 100, "subtype": "noteOn"}, {"deltaTime": 1, "channel": 0, "type": "channel", "noteNumber": 35, "velocity": 100, "subtype": "noteOn"}, {"deltaTime": 119, "channel": 0, "type": "channel", "subtype": "noteOff", "noteNumber": 44, "velocity": 64}, {"deltaTime": 1, "channel": 0, "type": "channel", "subtype": "noteOff", "noteNumber": 35, "velocity": 64}, {"deltaTime": 119, "channel": 0, "type": "channel", "noteNumber": 44, "velocity": 100, "subtype": "noteOn"}, {"deltaTime": 120, "channel": 0, "type": "channel", "subtype": "noteOff", "noteNumber": 44, "velocity": 64}, {"deltaTime": 120, "channel": 0, "type": "channel", "noteNumber": 44, "velocity": 100, "subtype": "noteOn"}, {"deltaTime": 1, "channel": 0, "type": "channel", "noteNumber": 35, "velocity": 100, "subtype": "noteOn"}, {"deltaTime": 119, "channel": 0, "type": "channel", "subtype": "noteOff", "noteNumber": 44, "velocity": 64}, {"deltaTime": 1, "channel": 0, "type": "channel", "subtype": "noteOff", "noteNumber": 35, "velocity": 64}, {"deltaTime": 119, "channel": 0, "type": "channel", "noteNumber": 44, "velocity": 100, "subtype": "noteOn"}, {"deltaTime": 120, "channel": 0, "type": "channel", "subtype": "noteOff", "noteNumber": 44, "velocity": 64}, {"deltaTime": 120, "channel": 0, "type": "channel", "noteNumber": 44, "velocity": 100, "subtype": "noteOn"}, {"deltaTime": 1, "channel": 0, "type": "channel", "noteNumber": 35, "velocity": 100, "subtype": "noteOn"}, {"deltaTime": 119, "channel": 0, "type": "channel", "subtype": "noteOff", "noteNumber": 44, "velocity": 64}, {"deltaTime": 1, "channel": 0, "type": "channel", "subtype": "noteOff", "noteNumber": 35, "velocity": 64}, {"deltaTime": 119, "channel": 0, "type": "channel", "noteNumber": 44, "velocity": 100, "subtype": "noteOn"}, {"deltaTime": 120, "channel": 0, "type": "channel", "subtype": "noteOff", "noteNumber": 44, "velocity": 64}, {"deltaTime": 120, "channel": 0, "type": "channel", "noteNumber": 44, "velocity": 100, "subtype": "noteOn"}, {"deltaTime": 1, "channel": 0, "type": "channel", "noteNumber": 35, "velocity": 100, "subtype": "noteOn"}, {"deltaTime": 119, "channel": 0, "type": "channel", "subtype": "noteOff", "noteNumber": 44, "velocity": 64}, {"deltaTime": 1, "channel": 0, "type": "channel", "subtype": "noteOff", "noteNumber": 35, "velocity": 64}, {"deltaTime": 119, "channel": 0, "type": "channel", "noteNumber": 44, "velocity": 100, "subtype": "noteOn"}, {"deltaTime": 120, "channel": 0, "type": "channel", "subtype": "noteOff", "noteNumber": 44, "velocity": 64}, {"deltaTime": 120, "channel": 0, "type": "channel", "noteNumber": 44, "velocity": 100, "subtype": "noteOn"}, {"deltaTime": 1, "channel": 0, "type": "channel", "noteNumber": 35, "velocity": 100, "subtype": "noteOn"}, {"deltaTime": 119, "channel": 0, "type": "channel", "subtype": "noteOff", "noteNumber": 44, "velocity": 64}, {"deltaTime": 1, "channel": 0, "type": "channel", "subtype": "noteOff", "noteNumber": 35, "velocity": 64}, {"deltaTime": 119, "channel": 0, "type": "channel", "noteNumber": 44, "velocity": 100, "subtype": "noteOn"}, {"deltaTime": 120, "channel": 0, "type": "channel", "subtype": "noteOff", "noteNumber": 44, "velocity": 64}, {"deltaTime": 120, "channel": 0, "type": "channel", "noteNumber": 44, "velocity": 100, "subtype": "noteOn"}, {"deltaTime": 1, "channel": 0, "type": "channel", "noteNumber": 35, "velocity": 100, "subtype": "noteOn"}, {"deltaTime": 119, "channel": 0, "type": "channel", "subtype": "noteOff", "noteNumber": 44, "velocity": 64}, {"deltaTime": 1, "channel": 0, "type": "channel", "subtype": "noteOff", "noteNumber": 35, "velocity": 64}, {"deltaTime": 119, "channel": 0, "type": "channel", "noteNumber": 44, "velocity": 100, "subtype": "noteOn"}, {"deltaTime": 120, "channel": 0, "type": "channel", "subtype": "noteOff", "noteNumber": 44, "velocity": 64}, {"deltaTime": 120, "channel": 0, "type": "channel", "noteNumber": 44, "velocity": 100, "subtype": "noteOn"}, {"deltaTime": 1, "channel": 0, "type": "channel", "noteNumber": 35, "velocity": 100, "subtype": "noteOn"}, {"deltaTime": 119, "channel": 0, "type": "channel", "subtype": "noteOff", "noteNumber": 44, "velocity": 64}, {"deltaTime": 1, "channel": 0, "type": "channel", "subtype": "noteOff", "noteNumber": 35, "velocity": 64}, {"deltaTime": 119, "channel": 0, "type": "channel", "noteNumber": 44, "velocity": 100, "subtype": "noteOn"}, {"deltaTime": 120, "channel": 0, "type": "channel", "subtype": "noteOff", "noteNumber": 44, "velocity": 64}, {"deltaTime": 120, "channel": 0, "type": "channel", "noteNumber": 44, "velocity": 100, "subtype": "noteOn"}, {"deltaTime": 1, "channel": 0, "type": "channel", "noteNumber": 35, "velocity": 100, "subtype": "noteOn"}, {"deltaTime": 119, "channel": 0, "type": "channel", "subtype": "noteOff", "noteNumber": 44, "velocity": 64}, {"deltaTime": 1, "channel": 0, "type": "channel", "subtype": "noteOff", "noteNumber": 35, "velocity": 64}, {"deltaTime": 119, "channel": 0, "type": "channel", "noteNumber": 44, "velocity": 100, "subtype": "noteOn"}, {"deltaTime": 120, "channel": 0, "type": "channel", "subtype": "noteOff", "noteNumber": 44, "velocity": 64}, {"deltaTime": 120, "channel": 0, "type": "channel", "noteNumber": 44, "velocity": 100, "subtype": "noteOn"}, {"deltaTime": 1, "channel": 0, "type": "channel", "noteNumber": 35, "velocity": 100, "subtype": "noteOn"}, {"deltaTime": 119, "channel": 0, "type": "channel", "subtype": "noteOff", "noteNumber": 44, "velocity": 64}, {"deltaTime": 1, "channel": 0, "type": "channel", "subtype": "noteOff", "noteNumber": 35, "velocity": 64}, {"deltaTime": 119, "channel": 0, "type": "channel", "noteNumber": 44, "velocity": 100, "subtype": "noteOn"}, {"deltaTime": 120, "channel": 0, "type": "channel", "subtype": "noteOff", "noteNumber": 44, "velocity": 64}, {"deltaTime": 120, "channel": 0, "type": "channel", "noteNumber": 44, "velocity": 100, "subtype": "noteOn"}, {"deltaTime": 1, "channel": 0, "type": "channel", "noteNumber": 35, "velocity": 100, "subtype": "noteOn"}, {"deltaTime": 119, "channel": 0, "type": "channel", "subtype": "noteOff", "noteNumber": 44, "velocity": 64}, {"deltaTime": 1, "channel": 0, "type": "channel", "subtype": "noteOff", "noteNumber": 35, "velocity": 64}, {"deltaTime": 119, "channel": 0, "type": "channel", "noteNumber": 44, "velocity": 100, "subtype": "noteOn"}, {"deltaTime": 120, "channel": 0, "type": "channel", "subtype": "noteOff", "noteNumber": 44, "velocity": 64}, {"deltaTime": 120, "channel": 0, "type": "channel", "noteNumber": 44, "velocity": 100, "subtype": "noteOn"}, {"deltaTime": 1, "channel": 0, "type": "channel", "noteNumber": 35, "velocity": 100, "subtype": "noteOn"}, {"deltaTime": 119, "channel": 0, "type": "channel", "subtype": "noteOff", "noteNumber": 44, "velocity": 64}, {"deltaTime": 1, "channel": 0, "type": "channel", "subtype": "noteOff", "noteNumber": 35, "velocity": 64}, {"deltaTime": 119, "channel": 0, "type": "channel", "noteNumber": 44, "velocity": 100, "subtype": "noteOn"}, {"deltaTime": 120, "channel": 0, "type": "channel", "subtype": "noteOff", "noteNumber": 44, "velocity": 64}, {"deltaTime": 120, "channel": 0, "type": "channel", "noteNumber": 44, "velocity": 100, "subtype": "noteOn"}, {"deltaTime": 1, "channel": 0, "type": "channel", "noteNumber": 35, "velocity": 100, "subtype": "noteOn"}, {"deltaTime": 119, "channel": 0, "type": "channel", "subtype": "noteOff", "noteNumber": 44, "velocity": 64}, {"deltaTime": 1, "channel": 0, "type": "channel", "subtype": "noteOff", "noteNumber": 35, "velocity": 64}, {"deltaTime": 119, "channel": 0, "type": "channel", "noteNumber": 44, "velocity": 100, "subtype": "noteOn"}, {"deltaTime": 120, "channel": 0, "type": "channel", "subtype": "noteOff", "noteNumber": 44, "velocity": 64}, {"deltaTime": 120, "channel": 0, "type": "channel", "noteNumber": 44, "velocity": 100, "subtype": "noteOn"}, {"deltaTime": 1, "channel": 0, "type": "channel", "noteNumber": 35, "velocity": 100, "subtype": "noteOn"}, {"deltaTime": 119, "channel": 0, "type": "channel", "subtype": "noteOff", "noteNumber": 44, "velocity": 64}, {"deltaTime": 1, "channel": 0, "type": "channel", "subtype": "noteOff", "noteNumber": 35, "velocity": 64}, {"deltaTime": 119, "channel": 0, "type": "channel", "noteNumber": 44, "velocity": 100, "subtype": "noteOn"}, {"deltaTime": 120, "channel": 0, "type": "channel", "subtype": "noteOff", "noteNumber": 44, "velocity": 64}, {"deltaTime": 120, "channel": 0, "type": "channel", "noteNumber": 44, "velocity": 100, "subtype": "noteOn"}, {"deltaTime": 1, "channel": 0, "type": "channel", "noteNumber": 35, "velocity": 100, "subtype": "noteOn"}, {"deltaTime": 119, "channel": 0, "type": "channel", "subtype": "noteOff", "noteNumber": 44, "velocity": 64}, {"deltaTime": 1, "channel": 0, "type": "channel", "subtype": "noteOff", "noteNumber": 35, "velocity": 64}, {"deltaTime": 119, "channel": 0, "type": "channel", "noteNumber": 44, "velocity": 100, "subtype": "noteOn"}, {"deltaTime": 120, "channel": 0, "type": "channel", "subtype": "noteOff", "noteNumber": 44, "velocity": 64}, {"deltaTime": 120, "channel": 0, "type": "channel", "noteNumber": 44, "velocity": 100, "subtype": "noteOn"}, {"deltaTime": 1, "channel": 0, "type": "channel", "noteNumber": 35, "velocity": 100, "subtype": "noteOn"}, {"deltaTime": 119, "channel": 0, "type": "channel", "subtype": "noteOff", "noteNumber": 44, "velocity": 64}, {"deltaTime": 1, "channel": 0, "type": "channel", "subtype": "noteOff", "noteNumber": 35, "velocity": 64}, {"deltaTime": 119, "channel": 0, "type": "channel", "noteNumber": 44, "velocity": 100, "subtype": "noteOn"}, {"deltaTime": 120, "channel": 0, "type": "channel", "subtype": "noteOff", "noteNumber": 44, "velocity": 64}, {"deltaTime": 120, "channel": 0, "type": "channel", "noteNumber": 44, "velocity": 100, "subtype": "noteOn"}, {"deltaTime": 1, "channel": 0, "type": "channel", "noteNumber": 35, "velocity": 100, "subtype": "noteOn"}, {"deltaTime": 119, "channel": 0, "type": "channel", "subtype": "noteOff", "noteNumber": 44, "velocity": 64}, {"deltaTime": 1, "channel": 0, "type": "channel", "subtype": "noteOff", "noteNumber": 35, "velocity": 64}, {"deltaTime": 119, "channel": 0, "type": "channel", "noteNumber": 44, "velocity": 100, "subtype": "noteOn"}, {"deltaTime": 120, "channel": 0, "type": "channel", "subtype": "noteOff", "noteNumber": 44, "velocity": 64}, {"deltaTime": 120, "channel": 0, "type": "channel", "noteNumber": 44, "velocity": 100, "subtype": "noteOn"}, {"deltaTime": 1, "channel": 0, "type": "channel", "noteNumber": 35, "velocity": 100, "subtype": "noteOn"}, {"deltaTime": 119, "channel": 0, "type": "channel", "subtype": "noteOff", "noteNumber": 44, "velocity": 64}, {"deltaTime": 1, "channel": 0, "type": "channel", "subtype": "noteOff", "noteNumber": 35, "velocity": 64}, {"deltaTime": 119, "channel": 0, "type": "channel", "noteNumber": 44, "velocity": 100, "subtype": "noteOn"}, {"deltaTime": 120, "channel": 0, "type": "channel", "subtype": "noteOff", "noteNumber": 44, "velocity": 64}, {"deltaTime": 120, "channel": 0, "type": "channel", "noteNumber": 44, "velocity": 100, "subtype": "noteOn"}, {"deltaTime": 120, "channel": 0, "type": "channel", "subtype": "noteOff", "noteNumber": 44, "velocity": 64}, {"deltaTime": 120, "channel": 0, "type": "channel", "noteNumber": 44, "velocity": 100, "subtype": "noteOn"}, {"deltaTime": 120, "channel": 0, "type": "channel", "subtype": "noteOff", "noteNumber": 44, "velocity": 64}, {"deltaTime": 120, "channel": 0, "type": "channel", "noteNumber": 44, "velocity": 100, "subtype": "noteOn"}, {"deltaTime": 120, "channel": 0, "type": "channel", "subtype": "noteOff", "noteNumber": 44, "velocity": 64}, {"deltaTime": 500, "type": "meta", "subtype": "endOfTrack"}]]}